<svg xmlns="http://www.w3.org/2000/svg" xmlns:xlink="http://www.w3.org/1999/xlink" id="Groupe_1863" data-name="Groupe 1863" width="26.546" height="27.02" viewBox="0 0 26.546 27.02"><defs><clipPath id="clip-path"><rect id="Rectangle_992" data-name="Rectangle 992" width="26.546" height="27.02" transform="translate(0 0)" fill="none" stroke="#a144e9" stroke-width="1"></rect></clipPath></defs><g id="Groupe_1862" data-name="Groupe 1862" clip-path="url(#clip-path)"><path id="Trac&#xE9;_1618" data-name="Trac&#xE9; 1618" d="M3.176,15.191a5.965,5.965,0,1,0,8.848,7.683" fill="none" stroke="#a144e9" stroke-linecap="round" stroke-linejoin="round" stroke-width="1.8"></path><path id="Trac&#xE9;_1619" data-name="Trac&#xE9; 1619" d="M23.03,13.51a9.206,9.206,0,1,0-7.505,5.765" fill="none" stroke="#a144e9" stroke-linecap="round" stroke-linejoin="round" stroke-width="1.8"></path><path id="Trac&#xE9;_1620" data-name="Trac&#xE9; 1620" d="M12.287,11.745h0a1.627,1.627,0,0,0,1.627,1.627H15a1.627,1.627,0,0,0,0-3.254H13.914a1.627,1.627,0,1,1,0-3.253H15a1.626,1.626,0,0,1,1.627,1.627" fill="none" stroke="#a144e9" stroke-linecap="round" stroke-linejoin="round" stroke-width="1.8"></path><line id="Ligne_28" data-name="Ligne 28" y2="1.627" transform="translate(14.456 13.372)" fill="none" stroke="#a144e9" stroke-linecap="round" stroke-linejoin="round" stroke-width="1.8"></line><line id="Ligne_29" data-name="Ligne 29" y2="1.627" transform="translate(14.456 5.238)" fill="none" stroke="#a144e9" stroke-linecap="round" stroke-linejoin="round" stroke-width="1.8"></line><path id="Trac&#xE9;_1621" data-name="Trac&#xE9; 1621" d="M25.646,21.181,18.577,13.8v10.27l1.78-1.69,1.56,3.736L24.8,24.914l-1.565-3.747Z" fill="none" stroke="#a144e9" stroke-linecap="round" stroke-linejoin="round" stroke-width="1.8"></path></g></svg>