<svg xmlns="http://www.w3.org/2000/svg" xmlns:xlink="http://www.w3.org/1999/xlink" width="26.275" height="26.275" viewBox="0 0 26.275 26.275"><defs><clipPath id="clip-path"><rect id="Rectangle_961" data-name="Rectangle 961" width="26.275" height="26.275" transform="translate(0 0)" fill="none" stroke="#a144e9" stroke-width="1"></rect></clipPath></defs><g id="Groupe_1833" data-name="Groupe 1833" transform="translate(0 0)"><g id="Groupe_1832" data-name="Groupe 1832" clip-path="url(#clip-path)"><circle id="Ellipse_14" data-name="Ellipse 14" cx="1.849" cy="1.849" r="1.849" transform="translate(13.481 16.186)" fill="none" stroke="#a144e9" stroke-linecap="round" stroke-linejoin="round" stroke-width="1.3"></circle><path id="Trac&#xE9;_1566" data-name="Trac&#xE9; 1566" d="M9.839,14.627A1.85,1.85,0,1,1,7.99,12.778,1.851,1.851,0,0,1,9.839,14.627Z" fill="none" stroke="#a144e9" stroke-linecap="round" stroke-linejoin="round" stroke-width="1.3"></path><path id="Trac&#xE9;_1567" data-name="Trac&#xE9; 1567" d="M25.625,11.656a1.85,1.85,0,1,1-1.85-1.85A1.849,1.849,0,0,1,25.625,11.656Z" fill="none" stroke="#a144e9" stroke-linecap="round" stroke-linejoin="round" stroke-width="1.3"></path><line id="Ligne_9" data-name="Ligne 9" x2="3.985" y2="1.849" transform="translate(9.667 15.406)" fill="none" stroke="#a144e9" stroke-linecap="round" stroke-linejoin="round" stroke-width="1.3"></line><line id="Ligne_10" data-name="Ligne 10" x1="5.562" y2="4.067" transform="translate(16.72 12.747)" fill="none" stroke="#a144e9" stroke-linecap="round" stroke-linejoin="round" stroke-width="1.3"></line><path id="Trac&#xE9;_1568" data-name="Trac&#xE9; 1568" d="M25.625,25.625H3.31a2.66,2.66,0,0,1-2.66-2.66V.65" fill="none" stroke="#a144e9" stroke-linecap="round" stroke-linejoin="round" stroke-width="1.3"></path><line id="Ligne_11" data-name="Ligne 11" y2="5.74" transform="translate(15.33 19.885)" fill="none" stroke="#a144e9" stroke-linecap="round" stroke-linejoin="round" stroke-width="1.3"></line><line id="Ligne_12" data-name="Ligne 12" y2="9.147" transform="translate(7.989 16.478)" fill="none" stroke="#a144e9" stroke-linecap="round" stroke-linejoin="round" stroke-width="1.3"></line><line id="Ligne_13" data-name="Ligne 13" y2="12.119" transform="translate(23.776 13.506)" fill="none" stroke="#a144e9" stroke-linecap="round" stroke-linejoin="round" stroke-width="1.3"></line><line id="Ligne_14" data-name="Ligne 14" x1="5.489" y2="2.073" transform="translate(0.65 14.627)" fill="none" stroke="#a144e9" stroke-linecap="round" stroke-linejoin="round" stroke-width="1.3"></line><path id="Trac&#xE9;_1569" data-name="Trac&#xE9; 1569" d="M3.395,8.642l4.6-2.565L15.33,9.836,23.02,4.307" fill="none" stroke="#a144e9" stroke-linecap="round" stroke-linejoin="round" stroke-width="1.3"></path><path id="Trac&#xE9;_1570" data-name="Trac&#xE9; 1570" d="M22.325,6.934l.933-2.8h-3.11" fill="none" stroke="#a144e9" stroke-linecap="round" stroke-linejoin="round" stroke-width="1.3"></path></g></g></svg>