<svg xmlns="http://www.w3.org/2000/svg" xmlns:xlink="http://www.w3.org/1999/xlink" id="Groupe_1859" data-name="Groupe 1859" width="32.753" height="26.8" viewBox="0 0 32.753 26.8"><defs><clipPath id="clip-path"><rect id="Rectangle_990" data-name="Rectangle 990" width="32.753" height="26.8" transform="translate(0 0)" fill="none" stroke="#a144e9" stroke-width="1"></rect></clipPath></defs><g id="Groupe_1858" data-name="Groupe 1858" clip-path="url(#clip-path)"><path id="Trac&#xE9;_1612" data-name="Trac&#xE9; 1612" d="M16.285,6.149A9.917,9.917,0,0,1,18.9,2.759,7.94,7.94,0,0,1,24.785.948a8.1,8.1,0,0,1,7.006,9.023c-.556,4.386-3.936,7.881-7.269,10.465-2.565,2-5.336,3.709-8.071,5.464-2.837-1.824-5.691-3.616-8.342-5.712C4.83,17.595,1.458,14.235.957,9.87A8.058,8.058,0,0,1,2.668,3.833,7.817,7.817,0,0,1,7.976.957a7.535,7.535,0,0,1,3.118.421A9.038,9.038,0,0,1,16.285,6.149Z" fill="none" stroke="#a144e9" stroke-linecap="round" stroke-linejoin="round" stroke-width="1.8"></path></g></svg>