<svg xmlns="http://www.w3.org/2000/svg" xmlns:xlink="http://www.w3.org/1999/xlink" id="Groupe_1835" data-name="Groupe 1835" width="41.194" height="26.3" viewBox="0 0 41.194 26.3"><defs><clipPath id="clip-path"><rect id="Rectangle_962" data-name="Rectangle 962" width="41.194" height="26.3" transform="translate(0 0)" fill="none" stroke="#a144e9" stroke-width="1"></rect></clipPath></defs><g id="Groupe_1834" data-name="Groupe 1834" clip-path="url(#clip-path)"><path id="Trac&#xE9;_1571" data-name="Trac&#xE9; 1571" d="M31.966,14.009a5.532,5.532,0,0,0,1.3.155,5.459,5.459,0,0,0,3.882-1.608c.032-.032.063-.064.094-.1a.555.555,0,0,1,.764-.043,7.259,7.259,0,0,1,2.535,5.519c0,4.018-3.257,3.814-7.275,3.814" fill="none" stroke="#a144e9" stroke-linecap="round" stroke-linejoin="round" stroke-width="1.3"></path><path id="Trac&#xE9;_1572" data-name="Trac&#xE9; 1572" d="M35.734,10.005a3.487,3.487,0,1,1,0-4.932A3.476,3.476,0,0,1,35.734,10.005Z" fill="none" stroke="#a144e9" stroke-linecap="round" stroke-linejoin="round" stroke-width="1.3"></path><path id="Trac&#xE9;_1573" data-name="Trac&#xE9; 1573" d="M9.155,14.026a5.528,5.528,0,0,1-1.23.137,5.451,5.451,0,0,1-3.881-1.608c-.031-.03-.062-.061-.091-.093a.559.559,0,0,0-.769-.045A7.256,7.256,0,0,0,.65,17.935c0,4.018,3.257,3.814,7.275,3.814" fill="none" stroke="#a144e9" stroke-linecap="round" stroke-linejoin="round" stroke-width="1.3"></path><path id="Trac&#xE9;_1574" data-name="Trac&#xE9; 1574" d="M10.391,10.005a3.487,3.487,0,1,1,0-4.932A3.476,3.476,0,0,1,10.391,10.005Z" fill="none" stroke="#a144e9" stroke-linecap="round" stroke-linejoin="round" stroke-width="1.3"></path><path id="Trac&#xE9;_1575" data-name="Trac&#xE9; 1575" d="M30.874,20.261c0,5.676-4.6,5.387-10.277,5.387s-10.277.289-10.277-5.387a10.253,10.253,0,0,1,3.579-7.8.79.79,0,0,1,1.086.064c.042.045.085.088.129.132a7.754,7.754,0,0,0,10.966,0c.045-.045.089-.09.133-.136a.786.786,0,0,1,1.08-.061A10.25,10.25,0,0,1,30.874,20.261Z" fill="none" stroke="#a144e9" stroke-linecap="round" stroke-linejoin="round" stroke-width="1.3"></path><path id="Trac&#xE9;_1576" data-name="Trac&#xE9; 1576" d="M24.08,9.059a4.926,4.926,0,1,1,0-6.966A4.9,4.9,0,0,1,24.08,9.059Z" fill="none" stroke="#a144e9" stroke-linecap="round" stroke-linejoin="round" stroke-width="1.3"></path></g></svg>