<svg xmlns="http://www.w3.org/2000/svg" xmlns:xlink="http://www.w3.org/1999/xlink" width="24.067" height="18.392" viewBox="0 0 24.067 18.392"><defs><clipPath id="clip-path"><rect id="Rectangle_59" data-name="Rectangle 59" width="24.067" height="18.392" transform="translate(0 0)" fill="#2f2f2f"></rect></clipPath></defs><g id="Groupe_61" data-name="Groupe 61" transform="translate(0 0)" clip-path="url(#clip-path)"><path id="Trac&#xE9;_33" data-name="Trac&#xE9; 33" d="M1,2H23.067a1,1,0,0,0,0-2H1A1,1,0,0,0,1,2" fill="#2f2f2f"></path><path id="Trac&#xE9;_34" data-name="Trac&#xE9; 34" d="M1,18.392H19.831a1,1,0,0,0,0-2H1a1,1,0,0,0,0,2" fill="#2f2f2f"></path><path id="Trac&#xE9;_35" data-name="Trac&#xE9; 35" d="M1,10.2H16.21a1,1,0,0,0,0-2H1a1,1,0,0,0,0,2" fill="#2f2f2f"></path></g></svg>