<svg xmlns="http://www.w3.org/2000/svg" xmlns:xlink="http://www.w3.org/1999/xlink" width="261.069" height="59.868" viewBox="0 0 261.069 59.868"><defs><clipPath id="clip-path"><rect id="Rectangle_944" data-name="Rectangle 944" width="81.625" height="59.555" fill="none"></rect></clipPath></defs><g id="Groupe_1967" data-name="Groupe 1967" transform="translate(-302.056 -17.322)"><path id="Trac&#xE9;_1628" data-name="Trac&#xE9; 1628" d="M-64.619.19a7.345,7.345,0,0,1-2.954-.523A4.324,4.324,0,0,1-69.379-1.7a3.2,3.2,0,0,1-.656-1.776.387.387,0,0,1,.114-.285.387.387,0,0,1,.285-.114h1.691a.562.562,0,0,1,.37.1,1.087,1.087,0,0,1,.218.257,1.923,1.923,0,0,0,.437.713,2.411,2.411,0,0,0,.883.579,3.784,3.784,0,0,0,1.415.228,3.681,3.681,0,0,0,2.042-.456A1.419,1.419,0,0,0-61.9-3.686a1.144,1.144,0,0,0-.361-.883,3.366,3.366,0,0,0-1.112-.608,19.491,19.491,0,0,0-1.985-.579,11.061,11.061,0,0,1-2.384-.827,3.62,3.62,0,0,1-1.444-1.225,3.373,3.373,0,0,1-.485-1.881,3.329,3.329,0,0,1,.6-1.957A4.014,4.014,0,0,1-67.365-13a6.492,6.492,0,0,1,2.65-.494,6.6,6.6,0,0,1,2.185.332,4.82,4.82,0,0,1,1.577.874,4.139,4.139,0,0,1,.959,1.159,2.726,2.726,0,0,1,.352,1.207.416.416,0,0,1-.1.276.365.365,0,0,1-.294.123h-1.767a.675.675,0,0,1-.3-.076.559.559,0,0,1-.247-.285,1.577,1.577,0,0,0-.741-1.007,2.858,2.858,0,0,0-1.615-.418,3.162,3.162,0,0,0-1.653.38,1.28,1.28,0,0,0-.627,1.178,1.278,1.278,0,0,0,.313.883,2.568,2.568,0,0,0,1.007.618,18.912,18.912,0,0,0,1.833.57A13.31,13.31,0,0,1-61.2-6.84a3.454,3.454,0,0,1,1.5,1.207,3.339,3.339,0,0,1,.475,1.852A3.419,3.419,0,0,1-59.9-1.643a4.257,4.257,0,0,1-1.89,1.358A7.753,7.753,0,0,1-64.619.19ZM-56.582,0a.44.44,0,0,1-.323-.133.44.44,0,0,1-.133-.323V-12.844a.44.44,0,0,1,.133-.323.44.44,0,0,1,.323-.133H-54.8a.432.432,0,0,1,.333.133.457.457,0,0,1,.124.323V-.456a.457.457,0,0,1-.124.323A.432.432,0,0,1-54.8,0Zm8.607,0A.44.44,0,0,1-48.3-.133a.44.44,0,0,1-.133-.323V-10.963h-3.515a.44.44,0,0,1-.323-.133.44.44,0,0,1-.133-.323v-1.406a.463.463,0,0,1,.133-.342.44.44,0,0,1,.323-.133h9.69a.463.463,0,0,1,.342.133.463.463,0,0,1,.133.342v1.406a.44.44,0,0,1-.133.323.463.463,0,0,1-.342.133h-3.5V-.456a.44.44,0,0,1-.133.323A.463.463,0,0,1-46.227,0Zm8.569,0a.44.44,0,0,1-.323-.133.44.44,0,0,1-.133-.323V-12.825a.463.463,0,0,1,.133-.342.44.44,0,0,1,.323-.133h8.36a.463.463,0,0,1,.342.133.463.463,0,0,1,.133.342v1.254a.44.44,0,0,1-.133.323.463.463,0,0,1-.342.133H-37.3v3.363h5.833a.483.483,0,0,1,.342.123.432.432,0,0,1,.133.332v1.178a.432.432,0,0,1-.133.332.483.483,0,0,1-.342.123H-37.3v3.477h6.4a.463.463,0,0,1,.342.133.463.463,0,0,1,.133.342V-.456a.44.44,0,0,1-.133.323A.463.463,0,0,1-30.894,0Zm16.169,0a.44.44,0,0,1-.323-.133.44.44,0,0,1-.133-.323V-12.825a.463.463,0,0,1,.133-.342.44.44,0,0,1,.323-.133H-18.6a7.4,7.4,0,0,1,3.164.589,4.069,4.069,0,0,1,1.881,1.748A5.954,5.954,0,0,1-12.9-8.132q.038.836.038,1.482T-12.9-5.187a6.511,6.511,0,0,1-.646,2.917,3.8,3.8,0,0,1-1.833,1.71A7.542,7.542,0,0,1-18.506,0Zm2.185-2.185H-18.6a4.189,4.189,0,0,0,1.729-.3,1.939,1.939,0,0,0,.978-.979,4.438,4.438,0,0,0,.332-1.776q.019-.57.029-1t0-.855q-.01-.428-.029-.978a3.253,3.253,0,0,0-.779-2.3,3.224,3.224,0,0,0-2.356-.741h-2.356ZM-9.88,0A.44.44,0,0,1-10.2-.133a.44.44,0,0,1-.133-.323V-12.825a.463.463,0,0,1,.133-.342A.44.44,0,0,1-9.88-13.3h8.36a.463.463,0,0,1,.342.133.463.463,0,0,1,.133.342v1.254a.44.44,0,0,1-.133.323.463.463,0,0,1-.342.133H-7.771v3.363h5.833a.483.483,0,0,1,.342.123.432.432,0,0,1,.133.332v1.178a.432.432,0,0,1-.133.332.483.483,0,0,1-.342.123H-7.771v3.477h6.4a.463.463,0,0,1,.342.133.463.463,0,0,1,.133.342V-.456a.44.44,0,0,1-.133.323A.463.463,0,0,1-1.368,0Z" transform="translate(466 31)" fill="#a144e9"></path><path id="Trac&#xE9;_1629" data-name="Trac&#xE9; 1629" d="M-118.712.19a6.637,6.637,0,0,1-2.974-.608,4.437,4.437,0,0,1-1.9-1.757,5.748,5.748,0,0,1-.731-2.746q-.019-.817-.019-1.758t.019-1.776a5.538,5.538,0,0,1,.731-2.7,4.468,4.468,0,0,1,1.919-1.729,6.666,6.666,0,0,1,2.954-.608,7.272,7.272,0,0,1,2.432.37,5.6,5.6,0,0,1,1.739.95,4.2,4.2,0,0,1,1.045,1.245,2.877,2.877,0,0,1,.37,1.235.331.331,0,0,1-.1.285.411.411,0,0,1-.3.114h-1.957a.45.45,0,0,1-.285-.076.671.671,0,0,1-.171-.228,2.812,2.812,0,0,0-.475-.788,2.556,2.556,0,0,0-.874-.655,3.288,3.288,0,0,0-1.425-.266,2.989,2.989,0,0,0-2.062.684A3.05,3.05,0,0,0-121.6-8.36q-.057,1.653,0,3.344a3.128,3.128,0,0,0,.845,2.318,3.01,3.01,0,0,0,2.081.7,3.684,3.684,0,0,0,1.529-.3,2.342,2.342,0,0,0,1.064-.95,3.162,3.162,0,0,0,.389-1.653v-.589h-2.318a.44.44,0,0,1-.323-.133.463.463,0,0,1-.133-.342V-6.973a.463.463,0,0,1,.133-.342.44.44,0,0,1,.323-.133h4.541a.432.432,0,0,1,.333.133.483.483,0,0,1,.123.342v2a5.266,5.266,0,0,1-.693,2.755,4.59,4.59,0,0,1-1.976,1.786A6.83,6.83,0,0,1-118.712.19Zm8.588-.19a.44.44,0,0,1-.323-.133.44.44,0,0,1-.133-.323V-12.825a.463.463,0,0,1,.133-.342.44.44,0,0,1,.323-.133h4.921a5.653,5.653,0,0,1,3.629,1.064,3.732,3.732,0,0,1,1.33,3.1,3.8,3.8,0,0,1-.694,2.337,3.9,3.9,0,0,1-1.852,1.349l2.774,4.845a.473.473,0,0,1,.057.209.372.372,0,0,1-.123.285.4.4,0,0,1-.275.114h-1.729a.669.669,0,0,1-.494-.171,1.567,1.567,0,0,1-.266-.342l-2.451-4.5h-2.641v4.56a.457.457,0,0,1-.124.323.432.432,0,0,1-.332.133Zm2.185-7.163h2.679a2.487,2.487,0,0,0,1.729-.523,1.9,1.9,0,0,0,.57-1.472,1.977,1.977,0,0,0-.561-1.492,2.423,2.423,0,0,0-1.738-.541h-2.679ZM-98.61,0a.4.4,0,0,1-.275-.114A.372.372,0,0,1-99.009-.4a.467.467,0,0,1,.038-.171l4.579-12.255a.712.712,0,0,1,.218-.333.652.652,0,0,1,.446-.142h2.071a.615.615,0,0,1,.437.142.919.919,0,0,1,.228.333L-86.412-.57a.881.881,0,0,1,.019.171.387.387,0,0,1-.114.285A.365.365,0,0,1-86.773,0h-1.653a.532.532,0,0,1-.39-.124.633.633,0,0,1-.161-.237l-.893-2.318h-5.643l-.893,2.318a.633.633,0,0,1-.162.237A.532.532,0,0,1-96.957,0Zm3.762-4.864h4.313L-92.7-10.735ZM-82.631,0a.44.44,0,0,1-.323-.133.44.44,0,0,1-.133-.323V-10.963H-86.6a.44.44,0,0,1-.323-.133.44.44,0,0,1-.133-.323v-1.406a.463.463,0,0,1,.133-.342A.44.44,0,0,1-86.6-13.3h9.69a.463.463,0,0,1,.342.133.463.463,0,0,1,.133.342v1.406a.44.44,0,0,1-.133.323.463.463,0,0,1-.342.133h-3.5V-.456a.44.44,0,0,1-.133.323A.463.463,0,0,1-80.883,0Zm13.414.19a6.8,6.8,0,0,1-2.869-.56A4.08,4.08,0,0,1-73.967-2.1a6,6,0,0,1-.665-2.993v-7.733a.463.463,0,0,1,.133-.342.44.44,0,0,1,.323-.133h1.729a.432.432,0,0,1,.332.133.483.483,0,0,1,.124.342v7.733a3.17,3.17,0,0,0,.741,2.308,2.727,2.727,0,0,0,2.033.751,2.7,2.7,0,0,0,2.024-.751,3.2,3.2,0,0,0,.731-2.308v-7.733a.463.463,0,0,1,.133-.342.463.463,0,0,1,.342-.133h1.71a.432.432,0,0,1,.333.133.483.483,0,0,1,.124.342v7.733A6.07,6.07,0,0,1-64.477-2.1,4.037,4.037,0,0,1-66.339-.37,6.784,6.784,0,0,1-69.217.19Zm8.7-.19a.44.44,0,0,1-.323-.133.44.44,0,0,1-.133-.323V-12.844a.44.44,0,0,1,.133-.323.44.44,0,0,1,.323-.133h1.786a.432.432,0,0,1,.333.133.457.457,0,0,1,.124.323V-.456a.457.457,0,0,1-.124.323A.432.432,0,0,1-58.729,0Zm8.607,0a.44.44,0,0,1-.323-.133.44.44,0,0,1-.133-.323V-10.963h-3.515A.44.44,0,0,1-56.2-11.1a.44.44,0,0,1-.133-.323v-1.406a.463.463,0,0,1,.133-.342.44.44,0,0,1,.323-.133h9.69a.463.463,0,0,1,.342.133.463.463,0,0,1,.133.342v1.406a.44.44,0,0,1-.133.323.463.463,0,0,1-.342.133h-3.5V-.456a.44.44,0,0,1-.133.323A.463.463,0,0,1-50.16,0Zm7.03,0A.44.44,0,0,1-45.2-.133a.44.44,0,0,1-.133-.323V-2.337a.463.463,0,0,1,.133-.342.44.44,0,0,1,.323-.133h1.9a.44.44,0,0,1,.323.133.463.463,0,0,1,.133.342V-.456a.44.44,0,0,1-.133.323A.44.44,0,0,1-42.978,0ZM-35,.19a6.6,6.6,0,0,1-2.993-.618,4.319,4.319,0,0,1-1.871-1.767,6.167,6.167,0,0,1-.722-2.765q-.019-.779-.019-1.672t.019-1.71a6.114,6.114,0,0,1,.731-2.755,4.361,4.361,0,0,1,1.881-1.777A6.551,6.551,0,0,1-35-13.49a7.31,7.31,0,0,1,2.318.342,5.365,5.365,0,0,1,1.748.941,4.3,4.3,0,0,1,1.121,1.4,4,4,0,0,1,.418,1.729.319.319,0,0,1-.1.285.419.419,0,0,1-.294.114H-31.6a.537.537,0,0,1-.342-.1.6.6,0,0,1-.19-.351,2.614,2.614,0,0,0-1.045-1.71,3.458,3.458,0,0,0-1.843-.456,2.852,2.852,0,0,0-2.033.713,3.264,3.264,0,0,0-.817,2.347q-.057,1.558,0,3.192a3.264,3.264,0,0,0,.817,2.346,2.852,2.852,0,0,0,2.033.713,3.452,3.452,0,0,0,1.853-.466,2.559,2.559,0,0,0,1.035-1.7.574.574,0,0,1,.19-.361.575.575,0,0,1,.342-.095h1.805A.419.419,0,0,1-29.5-4.5a.319.319,0,0,1,.1.285,4,4,0,0,1-.418,1.729,4.3,4.3,0,0,1-1.121,1.4,5.365,5.365,0,0,1-1.748.94A7.31,7.31,0,0,1-35,.19Zm12.977,0a6.9,6.9,0,0,1-2.907-.56,4.186,4.186,0,0,1-1.9-1.729,6.1,6.1,0,0,1-.741-2.916q-.019-.817-.019-1.615t.019-1.634a5.865,5.865,0,0,1,.76-2.888A4.477,4.477,0,0,1-24.88-12.9a6.532,6.532,0,0,1,2.86-.589,6.6,6.6,0,0,1,2.869.589,4.466,4.466,0,0,1,1.938,1.748,5.865,5.865,0,0,1,.76,2.888q.038.836.038,1.634t-.038,1.615A6.1,6.1,0,0,1-17.195-2.1,4.177,4.177,0,0,1-19.1-.37,6.965,6.965,0,0,1-22.021.19Zm0-2.185a2.823,2.823,0,0,0,2.014-.732,3.314,3.314,0,0,0,.836-2.385q.038-.836.038-1.548t-.038-1.53a4.108,4.108,0,0,0-.409-1.8,2.288,2.288,0,0,0-1-1.007,3.187,3.187,0,0,0-1.444-.314,3.143,3.143,0,0,0-1.425.314,2.288,2.288,0,0,0-1,1.007,4.108,4.108,0,0,0-.408,1.8q-.019.817-.019,1.53t.019,1.548a3.314,3.314,0,0,0,.836,2.385A2.8,2.8,0,0,0-22.021-1.995ZM-13.452,0a.463.463,0,0,1-.342-.133.44.44,0,0,1-.133-.323V-12.825a.463.463,0,0,1,.133-.342.463.463,0,0,1,.342-.133h1.5a.52.52,0,0,1,.4.142,1.1,1.1,0,0,1,.171.219L-7.714-6.1l3.705-6.84a1.1,1.1,0,0,1,.171-.219.52.52,0,0,1,.4-.142h1.482a.463.463,0,0,1,.342.133.463.463,0,0,1,.133.342V-.456a.44.44,0,0,1-.133.323A.463.463,0,0,1-1.957,0h-1.6a.432.432,0,0,1-.332-.133.457.457,0,0,1-.123-.323V-8.683L-6.669-3.61a1,1,0,0,1-.247.294.613.613,0,0,1-.4.124h-.779A.606.606,0,0,1-8.5-3.316,1.08,1.08,0,0,1-8.74-3.61L-11.4-8.683V-.456a.44.44,0,0,1-.133.323A.44.44,0,0,1-11.856,0Z" transform="translate(466 77)" fill="#a144e9"></path><path id="Trac&#xE9;_1630" data-name="Trac&#xE9; 1630" d="M-163.269,0a.635.635,0,0,1-.486-.2.671.671,0,0,1-.189-.473v-17.55a.658.658,0,0,1,.189-.486.658.658,0,0,1,.486-.189h7.344a8.559,8.559,0,0,1,5.508,1.606,5.5,5.5,0,0,1,2,4.55,5.544,5.544,0,0,1-.918,3.24,5.747,5.747,0,0,1-2.43,2l3.7,6.642a.672.672,0,0,1,.081.3.542.542,0,0,1-.176.391.542.542,0,0,1-.391.176h-3.591a1,1,0,0,1-.756-.257,2.049,2.049,0,0,1-.351-.473l-3.078-5.94h-2.754V-.675a.648.648,0,0,1-.2.473.679.679,0,0,1-.5.2Zm4.185-10.5h3.1a2.62,2.62,0,0,0,1.9-.621,2.235,2.235,0,0,0,.635-1.674,2.386,2.386,0,0,0-.607-1.7,2.537,2.537,0,0,0-1.931-.648h-3.1ZM-144.612,0a.635.635,0,0,1-.486-.2.671.671,0,0,1-.189-.473v-17.55a.658.658,0,0,1,.189-.486.658.658,0,0,1,.486-.189H-132a.658.658,0,0,1,.486.189.658.658,0,0,1,.189.486v2.538a.658.658,0,0,1-.189.486.658.658,0,0,1-.486.189h-8.613v3.645h8.019a.635.635,0,0,1,.486.2.7.7,0,0,1,.189.5v2.349a.671.671,0,0,1-.189.473.635.635,0,0,1-.486.2h-8.019v3.753h8.829a.658.658,0,0,1,.486.189.658.658,0,0,1,.189.486V-.675A.671.671,0,0,1-131.3-.2a.635.635,0,0,1-.486.2Zm17.253,0a.635.635,0,0,1-.486-.2.671.671,0,0,1-.189-.473v-17.55a.658.658,0,0,1,.189-.486.658.658,0,0,1,.486-.189h2.862a.909.909,0,0,1,.661.2,1.436,1.436,0,0,1,.257.311l6.588,10.368V-18.225a.658.658,0,0,1,.189-.486.658.658,0,0,1,.486-.189h3.24a.658.658,0,0,1,.486.189.658.658,0,0,1,.189.486V-.7a.7.7,0,0,1-.189.5.635.635,0,0,1-.486.2h-2.889a.833.833,0,0,1-.634-.216,2.987,2.987,0,0,1-.257-.3l-6.588-9.99V-.675a.671.671,0,0,1-.189.473.635.635,0,0,1-.486.2Zm26.487.27a10.477,10.477,0,0,1-4.374-.837,6.4,6.4,0,0,1-2.848-2.457,8.169,8.169,0,0,1-1.121-4.023q-.027-1.107-.027-2.376t.027-2.43a8.141,8.141,0,0,1,1.134-4,6.426,6.426,0,0,1,2.862-2.484,10.405,10.405,0,0,1,4.347-.837,11.614,11.614,0,0,1,3.294.446,8.25,8.25,0,0,1,2.646,1.3,6.115,6.115,0,0,1,1.769,2.052,5.955,5.955,0,0,1,.661,2.714.454.454,0,0,1-.148.405.6.6,0,0,1-.419.162h-3.645a.857.857,0,0,1-.54-.148,1.164,1.164,0,0,1-.324-.554,3.106,3.106,0,0,0-1.229-1.958,3.9,3.9,0,0,0-2.092-.526,3.264,3.264,0,0,0-2.349.823,3.9,3.9,0,0,0-.945,2.741q-.081,2.214,0,4.536a3.9,3.9,0,0,0,.945,2.741,3.264,3.264,0,0,0,2.349.823,3.9,3.9,0,0,0,2.106-.54A3.027,3.027,0,0,0-97.578-6.1a.977.977,0,0,1,.311-.554.918.918,0,0,1,.553-.148h3.645a.6.6,0,0,1,.419.162.454.454,0,0,1,.148.405,5.955,5.955,0,0,1-.661,2.713,6.115,6.115,0,0,1-1.769,2.052,8.25,8.25,0,0,1-2.646,1.3A11.614,11.614,0,0,1-100.872.27Zm18.927,0a10.633,10.633,0,0,1-4.32-.81,6.289,6.289,0,0,1-2.862-2.444,8.261,8.261,0,0,1-1.134-4.09q-.027-1.161-.027-2.336t.027-2.335a8.281,8.281,0,0,1,1.147-4.09,6.469,6.469,0,0,1,2.889-2.5,10.286,10.286,0,0,1,4.28-.837,10.263,10.263,0,0,1,4.293.837,6.566,6.566,0,0,1,2.889,2.5,8.005,8.005,0,0,1,1.134,4.09q.054,1.161.054,2.335t-.054,2.336a7.987,7.987,0,0,1-1.12,4.09A6.37,6.37,0,0,1-77.625-.54,10.633,10.633,0,0,1-81.945.27Zm0-3.888a3.242,3.242,0,0,0,2.336-.864,3.822,3.822,0,0,0,.958-2.754q.054-1.188.054-2.241t-.054-2.187a4.892,4.892,0,0,0-.472-2.065A2.683,2.683,0,0,0-80.271-14.9a3.585,3.585,0,0,0-1.674-.378,3.525,3.525,0,0,0-1.647.378,2.759,2.759,0,0,0-1.161,1.174,4.752,4.752,0,0,0-.486,2.065q-.027,1.134-.027,2.187t.027,2.241a3.907,3.907,0,0,0,.985,2.754A3.206,3.206,0,0,0-81.945-3.618ZM-69.768,0a.635.635,0,0,1-.486-.2.671.671,0,0,1-.189-.473v-17.55a.658.658,0,0,1,.189-.486.658.658,0,0,1,.486-.189h2.862a.909.909,0,0,1,.661.2,1.436,1.436,0,0,1,.257.311L-59.4-8.019V-18.225a.658.658,0,0,1,.189-.486.658.658,0,0,1,.486-.189h3.24a.658.658,0,0,1,.486.189.658.658,0,0,1,.189.486V-.7A.7.7,0,0,1-55-.2a.635.635,0,0,1-.486.2h-2.889a.833.833,0,0,1-.634-.216,2.987,2.987,0,0,1-.257-.3l-6.588-9.99V-.675a.671.671,0,0,1-.189.473.635.635,0,0,1-.486.2ZM-46.2,0a.635.635,0,0,1-.486-.2.671.671,0,0,1-.189-.473V-14.661h-4.806a.635.635,0,0,1-.486-.2.671.671,0,0,1-.189-.473v-2.889a.658.658,0,0,1,.189-.486.658.658,0,0,1,.486-.189h14.526a.658.658,0,0,1,.486.189.658.658,0,0,1,.189.486v2.889a.671.671,0,0,1-.189.473.635.635,0,0,1-.486.2h-4.806V-.675a.671.671,0,0,1-.189.473.635.635,0,0,1-.486.2Zm12.852,0a.635.635,0,0,1-.486-.2.671.671,0,0,1-.189-.473v-17.55a.658.658,0,0,1,.189-.486.658.658,0,0,1,.486-.189H-26a8.559,8.559,0,0,1,5.508,1.606,5.5,5.5,0,0,1,2,4.55,5.544,5.544,0,0,1-.918,3.24,5.747,5.747,0,0,1-2.43,2l3.7,6.642a.672.672,0,0,1,.081.3.542.542,0,0,1-.175.391A.542.542,0,0,1-18.63,0h-3.591a1,1,0,0,1-.756-.257,2.049,2.049,0,0,1-.351-.473l-3.078-5.94H-29.16V-.675a.648.648,0,0,1-.2.473.679.679,0,0,1-.5.2Zm4.185-10.5h3.1a2.62,2.62,0,0,0,1.9-.621,2.235,2.235,0,0,0,.635-1.674,2.386,2.386,0,0,0-.608-1.7,2.537,2.537,0,0,0-1.931-.648h-3.1ZM-14.688,0a.635.635,0,0,1-.486-.2.671.671,0,0,1-.189-.473v-17.55a.658.658,0,0,1,.189-.486.658.658,0,0,1,.486-.189H-2.079a.658.658,0,0,1,.486.189.658.658,0,0,1,.189.486v2.538a.658.658,0,0,1-.189.486.658.658,0,0,1-.486.189h-8.613v3.645h8.019a.635.635,0,0,1,.486.2.7.7,0,0,1,.189.5v2.349a.671.671,0,0,1-.189.473.635.635,0,0,1-.486.2h-8.019v3.753h8.829a.658.658,0,0,1,.486.189.658.658,0,0,1,.189.486V-.675A.671.671,0,0,1-1.377-.2a.635.635,0,0,1-.486.2Z" transform="translate(466 57)" fill="#fff"></path><g id="Groupe_1820" data-name="Groupe 1820" transform="translate(481.5 17.322)"><g id="Groupe_1819" data-name="Groupe 1819" clip-path="url(#clip-path)"><path id="Trac&#xE9;_1559" data-name="Trac&#xE9; 1559" d="M360.445,189.5l-12.376-8.352a7.226,7.226,0,0,0-4.509-1.583H327.436a6.4,6.4,0,0,1-6.388-6.39V150.853a6.4,6.4,0,0,1,6.388-6.391h36.926a6.4,6.4,0,0,1,6.388,6.391v22.325a6.4,6.4,0,0,1-6.388,6.39h-2.544a1.184,1.184,0,0,0-1.194,1.055l1.177,8.027a.875.875,0,0,1-.4.866.849.849,0,0,1-.465.136.9.9,0,0,1-.489-.15" transform="translate(-289.125 -130.098)" fill="#a144e9"></path><path id="Trac&#xE9;_1560" data-name="Trac&#xE9; 1560" d="M449.638,240.385c-2.9-1.271-12.371-6.025-12.371-13.951a7.651,7.651,0,0,1,3.494-6.8,7.788,7.788,0,0,1,9.5,1.253l.3.3.3-.3a7.773,7.773,0,0,1,9.5-1.258,7.652,7.652,0,0,1,3.493,6.8c0,7.921-9.468,12.68-12.376,13.955a2.315,2.315,0,0,1-1.843,0" transform="translate(-393.788 -196.822)" fill="#fff"></path><path id="Trac&#xE9;_1561" data-name="Trac&#xE9; 1561" d="M9.816,45.191a.9.9,0,0,0,.489-.15l12.318-8.308A7.287,7.287,0,0,1,27.19,35.1a.875.875,0,0,0,0-1.751,8.989,8.989,0,0,0-5.6,1.975l-10.618,7.16.89-6.069a2.958,2.958,0,0,0-2.925-3.066H6.388a4.644,4.644,0,0,1-4.64-4.636V6.391a4.644,4.644,0,0,1,4.64-4.64H43.313a4.644,4.644,0,0,1,4.64,4.64V9.839a.874.874,0,1,0,1.748,0V6.391A6.4,6.4,0,0,0,43.313,0H6.388A6.4,6.4,0,0,0,0,6.391V28.716A6.4,6.4,0,0,0,6.388,35.1H8.933a1.188,1.188,0,0,1,1.185,1.187l-1.168,7.9a.875.875,0,0,0,.4.866.849.849,0,0,0,.465.136" fill="#a144e9"></path></g></g></g></svg>